<?xml version="1.0" encoding="UTF-8"?><svg id="Layer_1" xmlns="http://www.w3.org/2000/svg" viewBox="0 0 180.01 39"><defs><style>.cls-1,.cls-2{fill:#be0000;}.cls-1,.cls-2,.cls-3{stroke-width:0px;}.cls-2{fill-rule:evenodd;}.cls-3{fill:#fff;}</style></defs><path class="cls-3" d="M50.25,33.25s-.05,0-.09.01c-.1.02-.28.06-.61.06h-2.65c-.08,0-.34-.01-.55-.04-.11,0-.17-.04-.21-.06-.03-.02-.07-.03-.1-.03-.09,0-.13.11-.16.2,0,0-.16.67-.16.76,0,.11.07.16.13.16.11,0,.15-.1.16-.13.02-.05.04-.09.11-.2.08-.12.2-.18.65-.18h.95v2.88c0,.66,0,1.23-.04,1.52-.03.22-.06.3-.13.31-.07.02-.14.03-.19.03-.1,0-.15.07-.15.14,0,.06.03.15.21.15.15,0,.42-.01.58-.02h.19c.15,0,.49.02.79.02.19,0,.21-.11.21-.15,0-.07-.05-.14-.15-.14-.05,0-.21-.01-.31-.03-.13-.02-.17-.09-.2-.31-.03-.29-.03-.86-.03-1.52v-2.89h.8c.74.03.77.23.78.32v.08c.01.07.02.21.16.21.07,0,.14-.05.14-.18v-.22c0-.18.02-.42.02-.55,0-.12-.04-.18-.13-.18l-.02-.02Z"/><path class="cls-3" d="M57.72,38.54c-.05,0-.2-.01-.31-.03-.13-.02-.17-.09-.2-.31-.03-.29-.03-.86-.03-1.52v-1.24c0-1.1,0-1.3.02-1.52.01-.24.07-.29.18-.32.08-.01.12-.02.16-.02.09,0,.15-.06.15-.14,0-.06-.03-.15-.21-.15-.15,0-.42.01-.58.02h-.2c-.16,0-.47-.02-.71-.02-.18,0-.21.09-.21.15,0,.08.06.14.15.14.07,0,.18,0,.22.02.17.04.22.1.23.32s.01.42.01,1.52v.1h-2.89v-.1c0-1.1,0-1.3.02-1.52.01-.24.07-.29.18-.32.08-.01.12-.02.16-.02.09,0,.15-.06.15-.14,0-.07-.04-.15-.21-.15-.15,0-.42.01-.58.02h-.2c-.16,0-.47-.02-.71-.02-.17,0-.21.08-.21.15,0,.08.06.14.15.14.07,0,.18,0,.22.02.17.04.22.1.23.32.02.22.02.42.02,1.52v1.24c0,.66,0,1.23-.03,1.52-.03.22-.06.3-.13.31-.08.02-.15.03-.19.03-.1,0-.15.07-.15.13s.04.15.21.15c.15,0,.42-.01.58-.02h.19c.15,0,.49.02.79.02.19,0,.21-.11.21-.15,0-.07-.05-.13-.15-.13-.06,0-.21-.01-.31-.03-.13-.02-.17-.09-.2-.31-.04-.29-.04-.86-.04-1.52v-.69h2.89v.69c0,.66,0,1.23-.04,1.52-.03.22-.06.3-.13.31-.08.02-.15.03-.19.03-.1,0-.15.07-.15.13s.03.15.21.15c.15,0,.42-.01.58-.02h.19c.15,0,.49.02.79.02.19,0,.21-.11.21-.15,0-.07-.05-.13-.15-.13h0Z"/><path class="cls-3" d="M63.14,37.68c-.12,0-.14.12-.15.18-.05.3-.14.38-.26.44-.17.07-.48.07-.64.07-.68,0-.71-.09-.73-.49v-1.78c.19,0,.79.02.96.03.24.03.27.13.29.18.02.08.02.14.02.21,0,.09.06.16.14.16.14,0,.14-.16.14-.23,0-.04.01-.3.03-.44.01-.14.03-.24.04-.31,0-.05.01-.08.01-.1,0-.1-.06-.15-.13-.15s-.11.05-.18.12c-.04.04-.11.06-.27.07-.11,0-.61.01-1.06.01v-1.9c.21,0,.81,0,.91.02.36.04.4.11.43.18s.04.17.04.22c0,.18.12.19.15.19.05,0,.11-.03.14-.16,0-.06.02-.22.03-.34v-.13c.01-.11.03-.18.04-.24,0-.04.02-.07.02-.11,0-.15-.1-.16-.12-.16-.04,0-.07.02-.1.03h-.02s-.15.03-.28.03h-1.7c-.16,0-.47-.02-.71-.02-.18,0-.21.09-.21.15,0,.08.06.13.15.13.07,0,.18,0,.22.02.17.04.22.1.23.32s.01.42.01,1.52v1.24c0,.66,0,1.23-.03,1.52-.03.22-.06.3-.13.31-.07.02-.14.03-.19.03-.1,0-.15.07-.15.14,0,.06.03.15.21.15.15,0,.42-.01.58-.02h.38c.27.01.73.03,1.48.03.28,0,.4,0,.47-.25.04-.15.09-.64.09-.71,0-.13-.05-.2-.14-.2v.04Z"/><path class="cls-3" d="M73.55,33.3c-.14,0-.34,0-.47.02h-.22c-.15,0-.42-.02-.65-.02-.18,0-.21.09-.21.15,0,.08.06.13.15.13.07,0,.18,0,.22.02.17.04.22.1.23.32.02.22.02.42.02,1.52v.88c0,.83-.12,1.33-.39,1.67-.25.29-.64.48-1.04.48s-.68-.06-1-.36c-.25-.24-.5-.62-.5-1.68v-.99c0-1.1,0-1.3.02-1.52.01-.25.07-.3.18-.32.08-.01.12-.02.16-.02.09,0,.15-.06.15-.13s-.04-.15-.21-.15c-.14,0-.36,0-.52.02h-.32c-.17,0-.44-.02-.67-.02-.18,0-.21.09-.21.15,0,.08.06.13.15.13.07,0,.18,0,.22.02.17.04.22.1.23.32s.01.42.01,1.52v1.03c0,.9.2,1.5.64,1.93.49.46,1.16.53,1.52.53.39,0,.97-.06,1.52-.55.6-.54.68-1.45.68-2.18v-.76c0-1.1,0-1.3.01-1.52.01-.24.07-.3.19-.32.07-.02.11-.02.15-.02.09,0,.15-.06.15-.13s-.04-.15-.21-.15h.02Z"/><path class="cls-3" d="M81.07,33.3c-.19,0-.36,0-.48.01h-.27c-.15,0-.37-.01-.58-.01-.06,0-.23,0-.23.14,0,.09.06.14.15.14.06,0,.21,0,.32.03.14.04.2.1.21.58l.07,3.35c-.12-.13-.28-.3-.46-.5-.32-.35-.7-.77-1.07-1.16-1.14-1.22-2.14-2.31-2.25-2.42-.02-.02-.04-.04-.06-.07-.1-.12-.17-.19-.25-.19-.17,0-.17.23-.17.45v4.05c0,.6-.04.78-.16.81-.08.03-.19.04-.26.04-.1,0-.15.07-.15.14,0,.1.07.15.21.15.22,0,.43-.01.56-.02h.21c.13,0,.36.02.65.02.18,0,.22-.08.22-.15s-.05-.14-.15-.14c-.02,0-.19,0-.33-.04-.13-.04-.2-.16-.21-.73l-.08-3.13c.35.39,1.02,1.13,1.68,1.84.75.81,1.77,1.85,1.85,1.92.42.42.49.48.58.48.16,0,.16-.14.16-.59l.02-4.14c0-.44.04-.51.19-.54.07-.02.12-.02.15-.02.12,0,.17-.07.17-.14,0-.14-.16-.14-.22-.14l-.02-.02Z"/><path class="cls-3" d="M85.28,38.54c-.05,0-.2-.01-.31-.03-.13-.02-.17-.09-.2-.31-.03-.29-.03-.86-.03-1.52v-1.24c0-1.1,0-1.3.02-1.52.01-.24.07-.29.18-.32.08-.01.12-.02.16-.02.09,0,.15-.06.15-.14,0-.06-.03-.15-.21-.15-.15,0-.42.01-.58.02h-.22c-.16,0-.44-.02-.61-.02-.18,0-.21.09-.21.15,0,.08.06.14.15.14.04,0,.12,0,.2.03.07.02.15.06.17.31.01.22.01.42.01,1.52v1.24c0,.66,0,1.23-.04,1.52-.03.22-.06.3-.13.31-.08.02-.15.03-.19.03-.1,0-.15.07-.15.13s.03.15.21.15c.15,0,.42-.01.58-.02h.19c.15,0,.49.02.79.02.19,0,.21-.11.21-.15,0-.07-.05-.13-.15-.13h0Z"/><path class="cls-3" d="M92.29,33.3c-.14,0-.33,0-.45.02h-.26c-.14,0-.35-.01-.53-.01-.07,0-.25,0-.25.15,0,.03.01.13.17.13.07,0,.17,0,.23.02.03.02.04.05.04.08,0,.06-.04.2-.06.24-.14.46-.97,2.63-1.42,3.7l-1.27-3.4h0c-.09-.24-.18-.48-.18-.55,0-.03,0-.04.04-.06s.14-.03.23-.03c.16,0,.16-.12.16-.14,0-.14-.18-.14-.28-.14-.18,0-.38,0-.51.01h-.31c-.17,0-.43-.01-.65-.01-.1,0-.28,0-.28.14,0,.09.06.14.15.14.04,0,.15,0,.24.03.21.06.3.12.45.49l1.73,4.33.02.04c.13.34.18.45.32.45.11,0,.15-.08.26-.34.03-.07.07-.15.12-.25.16-.34.46-1.05.87-2.04l.2-.49c.3-.73.56-1.36.63-1.53.18-.46.28-.57.35-.62.11-.07.24-.07.29-.07.17,0,.18-.11.18-.14,0-.06-.04-.14-.21-.14h-.02Z"/><path class="cls-3" d="M96.99,37.68c-.12,0-.14.12-.16.18-.05.3-.13.38-.26.44-.17.07-.46.07-.64.07-.68,0-.71-.09-.73-.49v-1.78c.19,0,.79.02.96.03.24.03.27.13.29.18.02.08.02.14.02.21,0,.09.06.16.14.16.14,0,.14-.16.14-.23,0-.04.01-.3.03-.44.01-.14.03-.24.04-.31,0-.05.01-.08.01-.1,0-.11-.07-.15-.13-.15-.07,0-.11.05-.18.12-.04.04-.11.05-.27.07-.11,0-.61.01-1.07.01v-1.9c.2,0,.81,0,.91.02.36.04.4.11.43.18s.04.17.04.22c0,.17.11.19.15.19.05,0,.11-.03.14-.16,0-.06.02-.18.03-.33v-.14c.01-.11.03-.18.04-.24,0-.04.02-.07.02-.11,0-.15-.11-.16-.12-.16-.04,0-.07.02-.1.03h-.02s-.14.03-.29.03h-1.7c-.16,0-.47-.02-.71-.02-.17,0-.21.08-.21.15,0,.08.06.13.15.13.07,0,.18,0,.22.02.17.04.22.1.23.32.02.22.02.42.02,1.52v1.24c0,.66,0,1.23-.03,1.52-.03.22-.06.3-.13.31-.07.02-.14.03-.19.03-.1,0-.15.07-.15.14s.04.15.21.15c.15,0,.42-.01.58-.02h.38c.27.01.73.03,1.48.03.28,0,.4,0,.47-.25.04-.15.09-.64.09-.71,0-.05,0-.2-.13-.2v.04Z"/><path class="cls-3" d="M104.55,38.54s-.13,0-.26-.02c-.18-.03-.46-.11-.81-.48-.35-.38-.76-.9-1.24-1.52l-.17-.22c.56-.54.82-1.06.82-1.64,0-.52-.33-.9-.52-1.04-.4-.29-.91-.33-1.35-.33-.14,0-.4,0-.6.01h-.33c-.16,0-.47-.02-.71-.02-.17,0-.21.08-.21.15,0,.08.06.13.15.13.07,0,.18,0,.22.02.17.04.22.1.23.32s.01.42.01,1.52v1.24c0,.66,0,1.23-.03,1.52-.03.22-.06.3-.13.31-.07.02-.14.03-.19.03-.1,0-.15.07-.15.14s.04.15.21.15c.18,0,.53-.02.64-.02h.11c.15,0,.49.02.79.02.19,0,.21-.11.21-.15,0-.07-.05-.14-.15-.14-.06,0-.2-.01-.31-.03-.13-.02-.17-.09-.2-.31-.04-.29-.04-.86-.04-1.52v-.13l.84.02c.06.08.15.2.26.35.15.21.34.47.51.7l.09.12c.36.47.6.79.89.95.2.11.4.15.8.15h.5c.09,0,.26,0,.26-.15,0-.07-.07-.14-.16-.14h.02ZM102.11,35.03c0,.47-.15.84-.39,1.01-.15.11-.35.12-.48.12-.32,0-.61-.05-.7-.11v-2.31c.06-.02.23-.04.44-.04.71,0,1.13.49,1.13,1.32h0Z"/><path class="cls-3" d="M107.39,35.63l-.2-.15c-.66-.55-.83-.76-.83-1.12,0-.43.31-.73.78-.73.56,0,.75.23.8.33.03.06.07.23.08.32,0,.05.02.17.15.17.14,0,.14-.18.14-.25,0-.37.02-.6.03-.69v-.06s-.02-.14-.16-.14c-.05,0-.09,0-.23-.03-.21-.05-.42-.07-.68-.07-.93,0-1.55.55-1.55,1.36,0,.49.16.96.95,1.6l.32.26c.61.51.78.76.78,1.2s-.32.85-.92.85c-.25,0-.84-.06-.95-.65-.02-.09-.02-.18-.02-.24,0-.14-.08-.17-.14-.17-.13,0-.14.15-.15.2v.09c-.02.14-.04.38-.04.66,0,.19,0,.28.16.35.28.13.6.2.99.2.44,0,.83-.11,1.12-.31.47-.34.64-.86.64-1.25,0-.57-.17-1.03-1.07-1.73h0Z"/><path class="cls-3" d="M112.51,38.54c-.05,0-.2-.01-.31-.03-.13-.02-.17-.09-.2-.31-.03-.29-.03-.86-.03-1.52v-1.24c0-1.1,0-1.3.02-1.52,0-.24.07-.29.18-.32.08-.01.12-.02.16-.02.09,0,.15-.06.15-.14,0-.07-.04-.15-.21-.15-.15,0-.42.01-.58.02h-.22c-.16,0-.44-.02-.61-.02-.18,0-.21.09-.21.15,0,.08.06.14.15.14.04,0,.12,0,.2.03.07.02.15.06.17.31,0,.22,0,.42,0,1.52v1.24c0,.66,0,1.23-.04,1.52-.03.22-.06.3-.13.31-.08.02-.15.03-.19.03-.1,0-.15.07-.15.13s.04.15.21.15c.15,0,.42-.01.58-.02h.19c.15,0,.49.02.79.02.19,0,.21-.11.21-.15,0-.07-.05-.13-.15-.13h.01Z"/><path class="cls-3" d="M118.82,33.25s-.05,0-.09.01c-.1.02-.28.06-.61.06h-2.65c-.08,0-.34-.01-.55-.04-.11,0-.17-.04-.21-.06-.03-.02-.07-.03-.1-.03-.09,0-.13.1-.16.2,0,0-.16.67-.16.76,0,.11.07.16.13.16.11,0,.15-.1.16-.13.02-.04.04-.09.11-.2.08-.12.19-.18.64-.18h.95v2.88c0,.66,0,1.23-.04,1.52-.03.22-.06.3-.13.31-.06.01-.13.03-.19.03-.1,0-.15.07-.15.14s.04.15.21.15c.15,0,.42-.01.58-.02h.19c.15,0,.49.02.79.02.19,0,.21-.11.21-.15,0-.07-.05-.14-.15-.14-.06,0-.21-.01-.31-.03-.13-.02-.17-.09-.2-.31-.03-.29-.03-.86-.03-1.52v-2.89h.8c.74.03.77.23.78.32v.08c0,.07.02.21.16.21.05,0,.14-.04.14-.18v-.22c0-.18.02-.42.02-.55,0-.12-.04-.18-.13-.18v-.02Z"/><path class="cls-3" d="M125.08,33.3c-.09,0-.33,0-.5.02h-.29c-.1,0-.24-.02-.36-.02-.19,0-.21.09-.21.14,0,.1.1.13.18.16,0,0,.04.01.04.11s-.04.2-.11.31c-.12.19-.84,1.43-1.1,1.93-.29-.48-1.11-1.9-1.21-2.08-.06-.11-.08-.17-.08-.23,0,0,0-.02.04-.04l.04-.02s.12-.05.12-.13c0-.04-.02-.14-.19-.14-.2,0-.39.01-.5.02h-.25c-.18,0-.44-.02-.53-.02-.14,0-.19.08-.19.14,0,.08.07.14.16.14.04,0,.15.03.25.1.14.09.31.28.45.5.25.37,1.19,1.91,1.24,2.02.09.2.15.34.15.7v.61c0,.11,0,.41-.02.7,0,.1-.03.28-.15.3-.07.02-.14.03-.19.03-.1,0-.15.07-.15.14s.04.15.21.15c.15,0,.42-.01.58-.02h.19c.15,0,.49.02.79.02.19,0,.21-.11.21-.15,0-.07-.05-.14-.15-.14-.06,0-.2-.01-.31-.03s-.19-.07-.21-.3c-.02-.29-.02-.59-.02-.7v-.61c0-.23,0-.43.1-.67.12-.29,1.1-1.94,1.34-2.22.16-.19.23-.26.35-.34.09-.06.21-.08.28-.08.13,0,.19-.08.19-.15s-.06-.14-.19-.14h0Z"/><path class="cls-3" d="M132.56,33.2c-2.09,0-2.87,1.75-2.87,2.85,0,1.38.89,2.87,2.83,2.87,1.69,0,2.91-1.25,2.91-2.98s-1.15-2.74-2.87-2.74h0ZM134.57,36.14c0,2.22-1.55,2.33-1.86,2.33-1.28,0-2.17-1.07-2.17-2.61,0-1.4.74-2.23,1.97-2.23.99,0,2.05.79,2.05,2.51h0Z"/><path class="cls-3" d="M140.34,33.24s-.07.02-.1.03c0,0-.02.01-.03.02-.04.01-.12.02-.2.02h-.08c-.15,0-1.47.01-1.73.01h-.09c-.16,0-.47-.02-.71-.02-.18,0-.21.09-.21.15,0,.08.06.13.15.13.07,0,.17,0,.22.02.17.04.22.1.23.32s0,.42,0,1.52v1.24c0,.66,0,1.23-.03,1.52-.03.22-.06.3-.13.31-.06.01-.14.03-.19.03-.1,0-.15.07-.15.14,0,.06.03.15.21.15.15,0,.42-.01.58-.02h.19c.15,0,.49.02.79.02.19,0,.21-.11.21-.15,0-.07-.05-.14-.15-.14-.06,0-.2-.01-.31-.03-.13-.02-.17-.09-.2-.31-.04-.29-.04-.86-.04-1.52v-.57c.53,0,.91,0,1.01.02.17.02.27.12.29.19.02.06.03.14.04.2v.02c0,.09.06.16.14.16.14,0,.14-.16.14-.23,0-.04.02-.32.03-.46s.03-.24.04-.3c0-.05,0-.08,0-.1,0-.14-.11-.15-.13-.15-.07,0-.11.05-.14.09v.02c-.05.06-.11.07-.27.09h-1.17v-1.9l1.05.02c.24,0,.37.11.4.17.04.08.06.18.06.23,0,.13.08.18.14.18.04,0,.12-.02.15-.16,0-.06.02-.22.03-.34v-.13c0-.11.03-.18.04-.24,0-.04.02-.07.02-.11,0-.11-.07-.16-.13-.16v.02Z"/><path class="cls-3" d="M150.65,33.3c-.14,0-.34,0-.47.02h-.22c-.15,0-.42-.02-.65-.02-.18,0-.21.09-.21.15,0,.08.06.13.15.13.07,0,.18,0,.22.02.17.04.22.1.23.32s0,.42,0,1.52v.88c0,.83-.12,1.33-.39,1.67-.25.29-.64.48-1.04.48s-.68-.06-1-.36c-.25-.24-.5-.62-.5-1.68v-.99c0-1.1,0-1.3.02-1.52,0-.25.07-.3.18-.32.08-.01.12-.02.16-.02.09,0,.15-.06.15-.13,0-.06-.03-.15-.21-.15-.14,0-.37,0-.53.02h-.32c-.17,0-.44-.02-.67-.02-.18,0-.21.09-.21.15,0,.08.06.13.15.13.07,0,.18,0,.22.02.17.04.22.1.23.32s0,.42,0,1.52v1.03c0,.9.2,1.5.64,1.93.49.46,1.16.53,1.52.53.39,0,.97-.06,1.52-.55.6-.54.68-1.45.68-2.18v-.76c0-1.1,0-1.3,0-1.52,0-.24.07-.3.19-.32.07-.02.11-.02.15-.02.09,0,.15-.06.15-.13,0-.06-.03-.15-.21-.15h.04Z"/><path class="cls-3" d="M156.78,33.25s-.05,0-.09.01c-.1.02-.28.06-.61.06h-2.65c-.08,0-.34-.01-.55-.04-.11,0-.17-.04-.21-.06-.03-.02-.07-.03-.1-.03-.09,0-.13.11-.16.2,0,0-.16.67-.16.76,0,.11.07.16.13.16.11,0,.15-.1.16-.13.02-.05.04-.09.11-.2.08-.12.19-.18.65-.18h.95v2.88c0,.66,0,1.23-.04,1.52-.03.22-.06.3-.13.31-.07.02-.14.03-.19.03-.1,0-.15.07-.15.14,0,.06.03.15.21.15.15,0,.42-.01.58-.02h.19c.15,0,.49.02.79.02.19,0,.21-.11.21-.15,0-.07-.05-.14-.15-.14-.05,0-.21-.01-.31-.03-.13-.02-.17-.09-.2-.31-.03-.29-.03-.86-.03-1.52v-2.89h.8c.74.03.77.23.78.32v.08c0,.07.02.2.16.2.07,0,.14-.05.14-.18v-.22c0-.18.02-.42.02-.55,0-.12-.04-.18-.13-.18h-.02Z"/><path class="cls-3" d="M162.9,38.54c-.06,0-.16,0-.26-.04-.09-.02-.29-.08-.55-.73-.31-.77-.96-2.47-1.35-3.49-.15-.4-.27-.7-.3-.77-.08-.21-.13-.31-.24-.31s-.16.11-.24.34l-1.6,4.39c-.13.36-.26.57-.52.6-.05,0-.15.01-.19.01-.1,0-.16.07-.16.14,0,.15.17.15.23.15.22,0,.48,0,.64-.02h.34c.12,0,.27.01.37.01.18,0,.2-.11.2-.15,0-.02,0-.14-.16-.14h-.07c-.07,0-.18-.03-.18-.11,0-.12.03-.28.09-.44l.41-1.24h1.5l.65,1.72s0,.06.02.07c-.09.02-.12.09-.12.14,0,.13.13.13.27.14h.04c.31.01.71.02,1.11.02.2,0,.23-.09.23-.15,0-.03,0-.14-.16-.14h0ZM160.7,36.3h-1.17l.56-1.73.61,1.73Z"/><path class="cls-3" d="M169.93,38.54c-.05,0-.2-.01-.31-.03-.13-.02-.17-.09-.2-.31-.03-.29-.03-.86-.03-1.52v-1.24c0-1.1,0-1.3.02-1.52,0-.25.07-.29.18-.32.08-.01.12-.02.16-.02.09,0,.15-.06.15-.14,0-.06-.03-.15-.21-.15-.15,0-.42.01-.58.02h-.2c-.16,0-.47-.02-.71-.02-.18,0-.21.09-.21.15,0,.08.06.14.15.14.07,0,.18,0,.22.02.17.04.22.1.23.32s0,.42,0,1.52v.1h-2.89v-.1c0-1.1,0-1.3,0-1.52,0-.25.07-.29.19-.32.08-.01.11-.02.16-.02.09,0,.15-.06.15-.14,0-.06-.03-.15-.21-.15-.15,0-.42.01-.58.02h-.2c-.16,0-.47-.02-.71-.02-.18,0-.21.09-.21.15,0,.08.06.14.15.14.07,0,.18,0,.22.02.17.04.22.1.23.32s0,.42,0,1.52v1.24c0,.66,0,1.23-.03,1.52-.03.22-.06.3-.13.31-.08.02-.15.03-.19.03-.1,0-.15.07-.15.13s.03.15.21.15c.15,0,.42-.01.58-.02h.19c.15,0,.49.02.79.02.19,0,.21-.11.21-.15,0-.07-.05-.13-.15-.13-.05,0-.2-.01-.31-.03-.13-.02-.17-.09-.2-.31-.04-.29-.04-.86-.04-1.52v-.69h2.89v.69c0,.66,0,1.23-.04,1.52-.03.22-.06.3-.13.31-.08.02-.15.03-.19.03-.1,0-.15.07-.15.13s.03.15.21.15c.15,0,.42-.01.58-.02h.19c.15,0,.49.02.79.02.19,0,.21-.11.21-.15,0-.07-.05-.13-.15-.13h.02Z"/><path class="cls-3" d="M53.81,1.74c-1.11-.84-2.55-1.21-4.64-1.21-1.3,0-2.52.09-3.43.25h-.03v11.1h.03c.56.08,1.52.17,2.89.17,2.27,0,4.08-.5,5.23-1.46.85-.73,1.87-2.12,1.87-4.58,0-1.89-.65-3.32-1.92-4.27ZM52.97,6.09c0,1.28-.34,2.27-1.02,2.93-.65.64-1.57.97-2.74.97-.29,0-.67,0-.89-.04V2.65c.17-.04.52-.09,1.11-.09,2.24,0,3.53,1.29,3.53,3.53h0Z"/><path class="cls-3" d="M64.15,11.89c-.09-.39-.13-1.07-.13-1.96v-2.85c0-2.94-1.96-3.56-3.61-3.56s-2.88.57-3.19.74h-.03l.49,1.71.04-.02c.5-.3,1.38-.59,2.23-.59,1.26,0,1.45.64,1.45,1.01v.06c-3.09,0-4.79,1.13-4.79,3.16,0,.67.25,1.3.71,1.77.49.51,1.17.77,1.96.77.98,0,1.82-.36,2.35-1l.15.79v.03h2.37v-.05h0ZM61.49,8.08v.85c0,.15-.02.3-.05.42-.17.53-.71.91-1.28.91-.6,0-.96-.35-.96-.93,0-.82.77-1.24,2.29-1.25Z"/><path class="cls-3" d="M73.45,3.7h-2.75l-1.06,3.81c-.19.74-.33,1.36-.44,1.93-.13-.62-.26-1.26-.46-1.93l-1.1-3.79v-.03h-2.84l2.99,8.21v.02h2.6l3.05-8.18.02-.05h-.01Z"/><path class="cls-3" d="M75.73,2.78h.02c.82,0,1.39-.54,1.39-1.31-.02-.78-.57-1.3-1.37-1.3s-1.39.54-1.39,1.3.57,1.31,1.36,1.31h0Z"/><rect class="cls-3" x="74.44" y="3.7" width="2.61" height="8.23"/><path class="cls-3" d="M81.98,12.12c1.12,0,2.08-.51,2.57-1.36l.1,1.14v.03h2.33v-.04c-.04-.55-.07-1.52-.07-2.43V0h-2.61v4.4c-.4-.55-1.2-.88-2.15-.88s-1.81.37-2.48,1.03c-.79.8-1.22,1.99-1.22,3.34,0,2.45,1.48,4.22,3.52,4.22h.01ZM81.1,7.83c0-1.68.89-2.28,1.71-2.28.71,0,1.29.48,1.45,1.2.03.15.03.31.03.46v1.07c0,.2-.02.4-.05.56-.15.7-.74,1.19-1.45,1.19-1.03,0-1.7-.86-1.7-2.2h.01Z"/><polygon class="cls-3" points="99.41 9.78 94.78 9.78 94.78 7.18 98.92 7.18 98.92 5.04 94.78 5.04 94.78 2.78 99.17 2.78 99.17 .62 92.17 .62 92.17 11.94 99.41 11.94 99.41 9.78"/><path class="cls-3" d="M105.19,5.56c.56,0,1.03.08,1.4.25l.04.02.42-1.96h-.03c-.53-.21-1.26-.33-1.95-.33-1.45,0-2.66.44-3.5,1.28-.78.77-1.21,1.87-1.21,3.08,0,2.56,1.71,4.21,4.36,4.21.91,0,1.79-.15,2.28-.39h.03l-.31-1.96-.04.02c-.41.18-.88.26-1.44.26-1.34,0-2.2-.88-2.2-2.25,0-.65.21-1.23.6-1.63.39-.39.92-.6,1.55-.6Z"/><path class="cls-3" d="M112.45,5.56c.56,0,1.04.08,1.4.25l.04.02.42-1.96h-.03c-.53-.21-1.26-.33-1.95-.33-1.45,0-2.66.44-3.5,1.28-.78.77-1.21,1.87-1.21,3.08,0,2.56,1.71,4.21,4.36,4.21.91,0,1.79-.15,2.28-.39h.03l-.31-1.96-.04.02c-.41.18-.88.26-1.44.26-1.34,0-2.2-.88-2.2-2.25,0-.65.21-1.23.6-1.63.39-.39.92-.6,1.54-.6h.01Z"/><rect class="cls-3" x="115.53" y="0" width="2.61" height="11.94"/><path class="cls-3" d="M126.61,9.78h-.04c-.71.25-1.4.36-2.24.36-1.55,0-2.18-.76-2.26-1.48h5.24v-.03c.05-.23.09-.61.09-1.01,0-1.1-.3-2.1-.84-2.82-.64-.85-1.62-1.29-2.84-1.29-1.3,0-2.39.49-3.15,1.42-.64.79-1.01,1.87-1.01,2.98,0,2.62,1.64,4.19,4.39,4.19,1.13,0,2.16-.18,2.97-.52h.03l-.34-1.76v-.04h0ZM123.59,5.28c1.26,0,1.37,1.24,1.38,1.58h-2.92c.07-.61.47-1.58,1.54-1.58Z"/><path class="cls-3" d="M130.97,12.1c2.19,0,3.56-1.03,3.56-2.69-.02-1.23-.71-2.01-2.23-2.54-.99-.33-1.29-.54-1.29-.9,0-.38.35-.61.93-.61.63,0,1.34.24,1.75.45l.04.02.44-1.78v-.03h-.02c-.61-.31-1.47-.5-2.3-.5-1.98,0-3.36,1.12-3.36,2.72,0,.76.39,1.81,2.36,2.47.9.29,1.16.49,1.16.9s-.34.63-1.05.63-1.69-.31-2.17-.59l-.04-.03-.46,1.85v.03h.02c.68.38,1.67.6,2.65.6h.01Z"/><path class="cls-3" d="M145.23,14.29c-.82,0-1.39.54-1.39,1.3s.57,1.31,1.36,1.31h.02c.82,0,1.39-.54,1.39-1.31-.02-.78-.57-1.3-1.37-1.3h-.01Z"/><path class="cls-3" d="M50.41,19.32c-1.43-.54-2.06-.85-2.06-1.55,0-.52.49-1.05,1.6-1.05s1.92.33,2.32.53l.04.02.59-2.11h-.03c-.8-.39-1.77-.58-2.88-.58-2.57,0-4.29,1.37-4.29,3.41,0,1.52,1.02,2.62,3.13,3.37,1.37.47,1.86.88,1.86,1.53,0,.74-.65,1.18-1.75,1.18s-2.16-.36-2.8-.7l-.04-.02-.53,2.13v.03h.02c.61.35,1.88.72,3.2.72,3.36,0,4.56-1.82,4.56-3.52,0-1.59-.9-2.64-2.93-3.39h0Z"/><path class="cls-3" d="M59.3,19.69c.57,0,1.04.08,1.4.25l.04.02.42-1.96h-.03c-.53-.21-1.26-.33-1.95-.33-1.45,0-2.66.44-3.5,1.28-.78.78-1.21,1.87-1.21,3.08,0,2.56,1.71,4.21,4.36,4.21.91,0,1.79-.15,2.28-.39h.03l-.31-1.95-.04.02c-.41.18-.88.26-1.44.26-1.34,0-2.2-.88-2.2-2.25,0-.65.21-1.23.6-1.63.39-.39.92-.6,1.55-.6h0Z"/><path class="cls-3" d="M67.31,17.65c-.46,0-.94.11-1.33.32-.39.19-.72.47-.98.82v-4.66h-2.61v11.94h2.61v-4.88c0-.16.01-.38.08-.54.22-.55.68-.88,1.23-.88.85,0,1.28.59,1.28,1.76v4.53h2.61v-4.79c0-2.27-1.08-3.62-2.89-3.62Z"/><path class="cls-3" d="M76.02,17.65c-2.68,0-4.41,1.71-4.41,4.36s1.71,4.24,4.26,4.24h.02c2.15,0,4.33-1.35,4.33-4.37,0-1.23-.4-2.28-1.16-3.05s-1.81-1.18-3.04-1.18ZM75.93,19.54c1.17,0,1.58,1.29,1.58,2.4,0,1.47-.62,2.42-1.58,2.42h-.02c-.98,0-1.61-.94-1.61-2.4,0-1.78.84-2.42,1.63-2.42Z"/><path class="cls-3" d="M85.56,17.65c-2.68,0-4.41,1.71-4.41,4.36s1.71,4.24,4.26,4.24h.02c2.15,0,4.33-1.35,4.33-4.37,0-1.23-.4-2.28-1.16-3.05s-1.81-1.18-3.04-1.18ZM87.06,21.94c0,1.47-.62,2.42-1.58,2.42h-.02c-.98,0-1.61-.94-1.61-2.4,0-1.78.84-2.42,1.63-2.42,1.17,0,1.58,1.29,1.58,2.4Z"/><rect class="cls-3" x="91.16" y="14.12" width="2.61" height="11.94"/><path class="cls-3" d="M102.89,17.65c-2.68,0-4.41,1.71-4.41,4.36s1.71,4.24,4.26,4.24h.02c2.15,0,4.32-1.35,4.32-4.37,0-1.23-.4-2.28-1.16-3.05-.76-.77-1.81-1.18-3.04-1.18h0ZM102.81,24.35h-.02c-.98,0-1.61-.94-1.61-2.4,0-1.78.84-2.42,1.63-2.42,1.17,0,1.58,1.29,1.58,2.4,0,1.47-.62,2.42-1.58,2.42Z"/><path class="cls-3" d="M112.12,13.96c-.52,0-1.51.11-2.29.83-.65.6-1.03,1.63-1.03,2.76v.28h-1.08v1.94h1.08v6.29h2.61v-6.29h1.62v-1.94h-1.64v-.38c0-1.28.8-1.41,1.15-1.41.29,0,.55.04.81.11h.05l.1-2.02h-.03c-.35-.09-.79-.17-1.34-.17h-.01Z"/><path class="cls-3" d="M123.68,19.95c1.15-.46,1.81-1.33,1.81-2.4,0-.97-.49-1.79-1.35-2.25-.79-.47-1.69-.64-3.34-.64-1.34,0-2.67.13-3.29.25h-.03v11.1h.03c.42.07,1.35.17,2.76.17,2.12,0,3.58-.34,4.44-1.03.77-.61,1.18-1.44,1.18-2.41,0-1.35-.84-2.41-2.21-2.79h0ZM120.06,21.09h.83c.68,0,2.25.15,2.25,1.55,0,.48-.21,1.6-2.13,1.6-.42,0-.71,0-.95-.04v-3.1h0ZM120.06,19.2v-2.54c.22-.05.56-.08,1.05-.08,1.14,0,1.76.45,1.76,1.26,0,.86-.73,1.35-2.01,1.35h-.8Z"/><path class="cls-3" d="M135.14,23.4v-5.58h-2.61v4.89c0,.21-.03.39-.1.54-.15.4-.56.86-1.23.86-.83,0-1.25-.63-1.25-1.87v-4.42h-2.61v4.83c0,2.31,1.03,3.59,2.91,3.59,1.53,0,2.3-.91,2.57-1.33l.12,1.14h2.27v-.04c-.03-.64-.07-1.51-.07-2.62h0Z"/><path class="cls-3" d="M140.56,21c-.99-.33-1.29-.54-1.29-.9,0-.38.35-.61.93-.61.64,0,1.34.24,1.75.45l.04.02.45-1.78v-.03h-.02c-.61-.31-1.47-.5-2.3-.5-1.98,0-3.36,1.12-3.36,2.72,0,.76.39,1.81,2.36,2.47.9.29,1.16.49,1.16.9s-.34.63-1.05.63-1.69-.31-2.17-.59l-.04-.03-.46,1.85v.03h.02c.68.38,1.67.6,2.65.6,2.19,0,3.56-1.03,3.56-2.69-.02-1.23-.7-2.01-2.23-2.54h0Z"/><rect class="cls-3" x="144.18" y="17.83" width="2.61" height="8.23"/><path class="cls-3" d="M153.52,17.65c-1.55,0-2.32.97-2.54,1.31l-.12-1.13h-2.27v.04c.04.76.07,1.6.07,2.6v5.59h2.61v-4.74c0-.29.03-.48.08-.62.23-.58.7-.93,1.27-.93,1.03,0,1.25.94,1.25,1.73v4.56h2.61v-4.86c0-2.23-1.11-3.56-2.96-3.56h0Z"/><path class="cls-3" d="M162.05,17.65c-1.3,0-2.39.49-3.15,1.41-.64.79-1.01,1.87-1.01,2.98,0,2.62,1.64,4.19,4.39,4.19,1.13,0,2.15-.18,2.97-.52h.03l-.34-1.76v-.04h-.05c-.71.25-1.4.36-2.24.36-1.55,0-2.18-.76-2.26-1.48h5.25v-.03c.05-.22.09-.61.09-1.01,0-1.1-.3-2.1-.84-2.82-.64-.85-1.62-1.29-2.84-1.29h0ZM163.29,20.98h-2.92c.07-.61.47-1.58,1.54-1.58,1.26,0,1.37,1.24,1.38,1.58Z"/><path class="cls-3" d="M170.62,21c-.99-.33-1.29-.54-1.29-.9,0-.38.35-.61.93-.61.64,0,1.34.24,1.75.45l.04.02.44-1.78v-.03h-.02c-.61-.31-1.47-.5-2.3-.5-1.98,0-3.36,1.12-3.36,2.72,0,.76.39,1.81,2.36,2.47.9.29,1.16.49,1.16.9s-.34.63-1.05.63-1.69-.31-2.17-.59l-.04-.03-.46,1.85v.03h.02c.68.38,1.67.6,2.65.6,2.19,0,3.56-1.03,3.56-2.69-.02-1.23-.7-2.01-2.23-2.54h.01Z"/><path class="cls-3" d="M177.77,21c-.99-.33-1.29-.54-1.29-.9,0-.38.35-.61.93-.61.64,0,1.34.24,1.75.45l.04.02.45-1.78v-.03h-.02c-.61-.31-1.47-.5-2.3-.5-1.98,0-3.36,1.12-3.36,2.72,0,.76.39,1.81,2.36,2.47.9.29,1.16.49,1.16.9s-.34.63-1.05.63-1.69-.31-2.17-.59l-.04-.03-.46,1.85v.03h.02c.68.38,1.67.6,2.65.6,2.19,0,3.56-1.03,3.56-2.69-.02-1.23-.7-2.01-2.23-2.54h0Z"/><rect class="cls-1" x="45.71" y="29.12" width="134.3" height=".9"/><path class="cls-1" d="M38.8,38.44c-.37.38-.83.56-1.36.56s-.98-.19-1.35-.56c-.37-.37-.56-.83-.56-1.36s.19-.98.56-1.35c.37-.37.82-.56,1.35-.56s.98.19,1.36.56c.37.37.56.82.56,1.35s-.19.98-.56,1.36ZM36.28,35.92c-.32.32-.48.71-.48,1.17s.16.85.48,1.17.71.48,1.17.48.85-.16,1.17-.48.48-.71.48-1.17-.16-.84-.48-1.17c-.32-.32-.71-.48-1.17-.48s-.84.16-1.16.48h0ZM37.41,36.03c.26,0,.45.03.57.08.22.09.33.27.33.53,0,.19-.07.33-.2.41-.07.05-.17.08-.3.1.16.03.28.09.36.21.08.11.11.22.11.33v.31c0,.06,0,.09.02.11v.03h-.33v-.28c0-.24-.07-.4-.2-.48-.08-.05-.22-.07-.41-.07h-.29v.83h-.37v-2.1h.73-.02ZM37.81,36.36c-.09-.05-.24-.08-.45-.08h-.32v.76h.33c.16,0,.27-.02.35-.05.14-.06.22-.17.22-.33,0-.15-.05-.26-.14-.31h0Z"/><polygon class="cls-2" points="0 .5 0 11.94 3.82 11.94 3.82 30.96 11.44 38.54 30.41 38.54 38.04 30.96 38.04 11.94 41.86 11.94 41.86 .5 22.83 .5 22.83 11.94 26.65 11.94 26.65 27.1 15.21 27.1 15.21 11.94 19.02 11.94 19.02 .5 0 .5"/></svg>